<svg xmlns="http://www.w3.org/2000/svg" xmlns:xlink="http://www.w3.org/1999/xlink" x="0px" y="0px" width="48px" height="48px" viewBox="0 0 48 48"><g >
<path fill="#4DA34D" d="M46,33H2c-0.55225,0-1-0.44775-1-1V4c0-0.55225,0.44775-1,1-1h44c0.55225,0,1,0.44775,1,1v28
	C47,32.55225,46.55225,33,46,33z"/>
<path fill="#9EDB9E" d="M38,6H10c0,3.31372-2.68628,6-6,6v12c3.31372,0,6,2.68628,6,6h28c0-3.31372,2.68628-6,6-6V12
	C40.68628,12,38,9.31372,38,6z"/>
<circle fill="#4DA34D" cx="24" cy="18" r="7"/>
<path opacity="0.1" d="M25,33h18v-2c0-0.35736-0.09039-0.68933-0.24652-1C42.90961,29.68933,43,29.35736,43,29v-3
	c0-0.35736-0.09039-0.68933-0.24652-1C42.90961,24.68933,43,24.35736,43,24v-3c0-0.35736-0.09039-0.68933-0.24652-1
	C42.90961,19.68933,43,19.35736,43,19v-3c0-0.35736-0.09039-0.68933-0.24652-1C42.90961,14.68933,43,14.35736,43,14v-3
	c0-2.62598-4.52734-4-9-4s-9,1.37402-9,4v3c0,0.35736,0.09039,0.68933,0.24652,1C25.09039,15.31067,25,15.64264,25,16v3
	c0,0.35736,0.09039,0.68933,0.24652,1C25.09039,20.31067,25,20.64264,25,21v3c0,0.35736,0.09039,0.68933,0.24652,1
	C25.09039,25.31067,25,25.64264,25,26v3c0,0.35736,0.09039,0.68933,0.24652,1C25.09039,30.31067,25,30.64264,25,31V33z"/>
<path fill="#D8BC48" d="M44,37H28c-0.55225,0-1,0.44775-1,1v3c0,2.62598,4.52734,4,9,4s9-1.37402,9-4v-3
	C45,37.44775,44.55225,37,44,37z"/>
<path fill="#EFD358" d="M36,34c-4.47266,0-9,1.37402-9,4s4.52734,4,9,4s9-1.37402,9-4S40.47266,34,36,34z"/>
<path fill="#D8BC48" d="M44,32H28c-0.55225,0-1,0.44775-1,1v3c0,2.62598,4.52734,4,9,4s9-1.37402,9-4v-3
	C45,32.44775,44.55225,32,44,32z"/>
<path fill="#EFD358" d="M36,29c-4.47266,0-9,1.37402-9,4s4.52734,4,9,4s9-1.37402,9-4S40.47266,29,36,29z"/>
<path fill="#D8BC48" d="M44,27H28c-0.55225,0-1,0.44775-1,1v3c0,2.62598,4.52734,4,9,4s9-1.37402,9-4v-3
	C45,27.44775,44.55225,27,44,27z"/>
<path fill="#EFD358" d="M36,24c-4.47266,0-9,1.37402-9,4s4.52734,4,9,4s9-1.37402,9-4S40.47266,24,36,24z"/>
<path fill="#D8BC48" d="M44,22H28c-0.55225,0-1,0.44775-1,1v3c0,2.62598,4.52734,4,9,4s9-1.37402,9-4v-3
	C45,22.44775,44.55225,22,44,22z"/>
<path fill="#EFD358" d="M36,19c-4.47266,0-9,1.37402-9,4s4.52734,4,9,4s9-1.37402,9-4S40.47266,19,36,19z"/>
<path fill="#D8BC48" d="M44,17H28c-0.55225,0-1,0.44775-1,1v3c0,2.62598,4.52734,4,9,4s9-1.37402,9-4v-3
	C45,17.44775,44.55225,17,44,17z"/>
<path fill="#EFD358" d="M36,14c-4.47266,0-9,1.37402-9,4s4.52734,4,9,4s9-1.37402,9-4S40.47266,14,36,14z"/>
<path fill="#D8BC48" d="M44,12H28c-0.55225,0-1,0.44775-1,1v3c0,2.62598,4.52734,4,9,4s9-1.37402,9-4v-3
	C45,12.44775,44.55225,12,44,12z"/>
<path fill="#EFD358" d="M36,9c-4.47266,0-9,1.37402-9,4s4.52734,4,9,4s9-1.37402,9-4S40.47266,9,36,9z"/>
</g></svg>